<svg width="20" height="20" viewBox="0 0 20 20" fill="none" xmlns="http://www.w3.org/2000/svg">
<rect width="20" height="20" fill="#F9F7F9"/>
<path fill-rule="evenodd" clip-rule="evenodd" d="M8.79123 3.66181C9.50589 3.11965 10.4941 3.11965 11.2088 3.66181L15.8132 7.15479C16.5608 7.72199 17 8.60639 17 9.54486V15C17 16.1046 16.1046 17 15 17H13C11.8954 17 11 16.1046 11 15V11.5H9V15C9 16.1046 8.10457 17 7 17H5C3.89543 17 3 16.1046 3 15V9.54486C3 8.60639 3.43917 7.72199 4.18684 7.15479L8.79123 3.66181ZM14.6044 8.74817L10 5.25519L5.39561 8.74817C5.14639 8.93724 5 9.23204 5 9.54486V15H7V11.5C7 10.3954 7.89543 9.5 9 9.5H11C12.1046 9.5 13 10.3954 13 11.5V15L15 15V9.54486C15 9.23204 14.8536 8.93724 14.6044 8.74817Z" fill="#5C426C"/>
</svg>
