<svg width="20" height="20" viewBox="0 0 20 20" fill="none" xmlns="http://www.w3.org/2000/svg">
<rect width="20" height="20" fill="#F9F7F9"/>
<path fill-rule="evenodd" clip-rule="evenodd" d="M3 8C3 6.89543 3.89543 6 5 6H12C13.1046 6 14 6.89543 14 8V15C14 16.1046 13.1046 17 12 17H5C3.89543 17 3 16.1046 3 15V8ZM12 8H5V15H12V8Z" fill="#5C426C"/>
<path fill-rule="evenodd" clip-rule="evenodd" d="M14 5.10526L6.00001 5.10529L6 3.10529L14 3.10526C15.6569 3.10525 17 4.4484 17 6.10526V14H15V6.10526C15 5.55297 14.5523 5.10525 14 5.10526Z" fill="#5C426C"/>
</svg>
