<svg width="128" height="129" viewBox="0 0 128 129" fill="none" xmlns="http://www.w3.org/2000/svg">
<rect y="0.00195312" width="128" height="128" fill="#8247E5"/>
<path d="M85.1837 50.309C83.6487 49.416 81.653 49.416 79.9645 50.309L67.991 57.1555L59.8553 61.6206L47.8819 68.4671C46.3468 69.3601 44.3513 69.3601 42.6627 68.4671L33.1453 63.109C31.6103 62.216 30.5358 60.5788 30.5358 58.7926V48.2253C30.5358 46.4393 31.4568 44.802 33.1453 43.909L42.5092 38.6996C44.0442 37.8066 46.0398 37.8066 47.7284 38.6996L57.0922 43.909C58.6273 44.802 59.7018 46.4393 59.7018 48.2253V55.0718L67.8375 50.4578V43.6113C67.8375 41.8253 66.9165 40.188 65.228 39.295L47.8819 29.4718C46.3468 28.5788 44.3513 28.5788 42.6627 29.4718L25.0095 39.295C23.3209 40.188 22.3999 41.8253 22.3999 43.6113V63.4066C22.3999 65.1926 23.3209 66.8299 25.0095 67.7229L42.6627 77.5462C44.1978 78.4393 46.1933 78.4393 47.8819 77.5462L59.8553 70.8485L67.991 66.2345L79.9645 59.5369C81.4995 58.6439 83.4952 58.6439 85.1837 59.5369L94.5475 64.7461C96.0825 65.6393 97.1572 67.2764 97.1572 69.0625V79.6299C97.1572 81.416 96.236 83.0531 94.5475 83.9461L85.1837 89.3044C83.6487 90.1974 81.653 90.1974 79.9645 89.3044L70.6007 84.095C69.0657 83.202 67.991 81.5648 67.991 79.7788V72.9323L59.8553 77.5462V84.3926C59.8553 86.1788 60.7763 87.816 62.4649 88.709L80.118 98.5323C81.653 99.4253 83.6487 99.4253 85.3372 98.5323L102.99 88.709C104.525 87.816 105.6 86.1788 105.6 84.3926V64.5974C105.6 62.8113 104.679 61.1741 102.99 60.281L85.1837 50.309Z" fill="white"/>
</svg>
