<svg width="20" height="20" viewBox="0 0 20 20" fill="none" xmlns="http://www.w3.org/2000/svg">
<rect width="20" height="20" fill="#F9F7F9"/>
<path fill-rule="evenodd" clip-rule="evenodd" d="M5 7L5 3L7 3L7 7L5 7Z" fill="#5C426C"/>
<path fill-rule="evenodd" clip-rule="evenodd" d="M5 17L5 11L7 11L7 17L5 17Z" fill="#5C426C"/>
<path fill-rule="evenodd" clip-rule="evenodd" d="M13 9L13 3L15 3L15 9L13 9Z" fill="#5C426C"/>
<path fill-rule="evenodd" clip-rule="evenodd" d="M6 8C5.44772 8 5 8.44772 5 9C5 9.55228 5.44772 10 6 10C6.55228 10 7 9.55228 7 9C7 8.44772 6.55228 8 6 8ZM9 9C9 10.6569 7.65685 12 6 12C4.34315 12 3 10.6569 3 9C3 7.34315 4.34315 6 6 6C7.65685 6 9 7.34315 9 9Z" fill="#5C426C"/>
<path fill-rule="evenodd" clip-rule="evenodd" d="M13 17L13 13L15 13L15 17L13 17Z" fill="#5C426C"/>
<path fill-rule="evenodd" clip-rule="evenodd" d="M14 10C13.4477 10 13 10.4477 13 11C13 11.5523 13.4477 12 14 12C14.5523 12 15 11.5523 15 11C15 10.4477 14.5523 10 14 10ZM17 11C17 12.6569 15.6569 14 14 14C12.3431 14 11 12.6569 11 11C11 9.34315 12.3431 8 14 8C15.6569 8 17 9.34315 17 11Z" fill="#5C426C"/>
</svg>
